<mxfile host="app.diagrams.net" agent="Mozilla/5.0 (Windows NT 10.0; Win64; x64) AppleWebKit/537.36 (KHTML, like Gecko) Chrome/138.0.0.0 Safari/537.36" version="28.0.7">
  <diagram name="PÃ¡gina-1" id="pSkQPQ0aBkByS5wlBB9v">
    <mxGraphModel dx="1489" dy="801" grid="1" gridSize="10" guides="1" tooltips="1" connect="1" arrows="1" fold="1" page="1" pageScale="1" pageWidth="827" pageHeight="1169" math="0" shadow="0">
      <root>
        <mxCell id="0" />
        <mxCell id="1" parent="0" />
        <mxCell id="csUiHMJYLtDpjyLEVO4X-1" value="Inicio" style="strokeWidth=2;html=1;shape=mxgraph.flowchart.terminator;whiteSpace=wrap;" vertex="1" parent="1">
          <mxGeometry x="310" y="10" width="164" height="70" as="geometry" />
        </mxCell>
        <mxCell id="csUiHMJYLtDpjyLEVO4X-2" value="Nota1, Nota2, Nota3, Nota 4, Nota5, Nota6" style="shape=parallelogram;html=1;strokeWidth=2;perimeter=parallelogramPerimeter;whiteSpace=wrap;rounded=1;arcSize=12;size=0.23;" vertex="1" parent="1">
          <mxGeometry x="200" y="130" width="400" height="90" as="geometry" />
        </mxCell>
        <mxCell id="csUiHMJYLtDpjyLEVO4X-5" value="&lt;div&gt;&lt;br&gt;&lt;/div&gt;&lt;div&gt;&lt;br&gt;&lt;/div&gt;&lt;div&gt;&lt;br&gt;&lt;/div&gt;&lt;div&gt;&lt;span style=&quot;background-color: transparent; color: light-dark(rgb(0, 0, 0), rgb(255, 255, 255));&quot;&gt;Total=&amp;nbsp;Nota1 + Nota2 + Nota3 + Nota4 + Nota5 + Nota6&lt;/span&gt;&lt;/div&gt;&lt;div&gt;&lt;br&gt;&lt;/div&gt;&lt;div&gt;Promedio= Total/6&amp;nbsp;&lt;/div&gt;&lt;div&gt;&lt;br&gt;&lt;/div&gt;&lt;div&gt;&lt;br&gt;&lt;/div&gt;" style="shape=parallelogram;html=1;strokeWidth=2;perimeter=parallelogramPerimeter;whiteSpace=wrap;rounded=1;arcSize=12;size=0.23;" vertex="1" parent="1">
          <mxGeometry x="120" y="260" width="460" height="110" as="geometry" />
        </mxCell>
        <mxCell id="csUiHMJYLtDpjyLEVO4X-7" style="edgeStyle=orthogonalEdgeStyle;rounded=0;orthogonalLoop=1;jettySize=auto;html=1;exitX=0.5;exitY=1;exitDx=0;exitDy=0;exitPerimeter=0;entryX=0.481;entryY=-0.018;entryDx=0;entryDy=0;entryPerimeter=0;" edge="1" parent="1" source="csUiHMJYLtDpjyLEVO4X-1" target="csUiHMJYLtDpjyLEVO4X-2">
          <mxGeometry relative="1" as="geometry" />
        </mxCell>
        <mxCell id="csUiHMJYLtDpjyLEVO4X-8" style="edgeStyle=orthogonalEdgeStyle;rounded=0;orthogonalLoop=1;jettySize=auto;html=1;exitX=0.5;exitY=1;exitDx=0;exitDy=0;entryX=0.579;entryY=-0.031;entryDx=0;entryDy=0;entryPerimeter=0;" edge="1" parent="1">
          <mxGeometry relative="1" as="geometry">
            <mxPoint x="391" y="220" as="sourcePoint" />
            <mxPoint x="389.97" y="257.21000000000004" as="targetPoint" />
          </mxGeometry>
        </mxCell>
        <mxCell id="csUiHMJYLtDpjyLEVO4X-11" style="edgeStyle=orthogonalEdgeStyle;rounded=0;orthogonalLoop=1;jettySize=auto;html=1;exitX=0.5;exitY=1;exitDx=0;exitDy=0;" edge="1" parent="1" source="csUiHMJYLtDpjyLEVO4X-9">
          <mxGeometry relative="1" as="geometry">
            <mxPoint x="340" y="570" as="targetPoint" />
          </mxGeometry>
        </mxCell>
        <mxCell id="csUiHMJYLtDpjyLEVO4X-9" value="Acumulado= Promedio*0,70&lt;div&gt;&lt;br&gt;&lt;/div&gt;&lt;div&gt;Necesario = (3.0 - Acumulado)/ 0.3&lt;/div&gt;" style="shape=parallelogram;html=1;strokeWidth=2;perimeter=parallelogramPerimeter;whiteSpace=wrap;rounded=1;arcSize=12;size=0.23;" vertex="1" parent="1">
          <mxGeometry x="140" y="410" width="400" height="110" as="geometry" />
        </mxCell>
        <mxCell id="csUiHMJYLtDpjyLEVO4X-10" style="edgeStyle=orthogonalEdgeStyle;rounded=0;orthogonalLoop=1;jettySize=auto;html=1;exitX=0.5;exitY=1;exitDx=0;exitDy=0;entryX=0.523;entryY=0.011;entryDx=0;entryDy=0;entryPerimeter=0;" edge="1" parent="1" source="csUiHMJYLtDpjyLEVO4X-5" target="csUiHMJYLtDpjyLEVO4X-9">
          <mxGeometry relative="1" as="geometry" />
        </mxCell>
        <mxCell id="csUiHMJYLtDpjyLEVO4X-12" value="Fin" style="strokeWidth=2;html=1;shape=mxgraph.flowchart.start_1;whiteSpace=wrap;" vertex="1" parent="1">
          <mxGeometry x="290" y="570" width="100" height="60" as="geometry" />
        </mxCell>
      </root>
    </mxGraphModel>
  </diagram>
</mxfile>
